<?xml version="1.0" encoding="utf-8"?>
<!-- Generator: Adobe Illustrator 26.1.0, SVG Export Plug-In . SVG Version: 6.00 Build 0)  -->
<svg version="1.1" id="Capa_1" xmlns="http://www.w3.org/2000/svg" xmlns:xlink="http://www.w3.org/1999/xlink" x="0px" y="0px"
	 viewBox="0 0 1060.2 782.4" style="enable-background:new 0 0 1060.2 782.4;" xml:space="preserve">
<style type="text/css">
	.st0{fill:#1E1E1C;}
</style>
<path class="st0" d="M183.7,107.8c-20,0-36.3-16.2-36.3-36.3c0-20,16.2-36.3,36.3-36.3L183.7,107.8z"/>
<path class="st0" d="M191.8,35.3c20,1,35.4,18,34.5,38c-1,20-18,35.4-38,34.5L191.8,35.3z"/>
<circle class="st0" cx="83.4" cy="81.5" r="52.4"/>
<circle class="st0" cx="59.7" cy="174.3" r="39"/>
<path class="st0" d="M205.3,185.7c-9.6,27.3-39.5,41.7-66.9,32.1c-27.3-9.6-41.7-39.5-32.1-66.9s39.5-41.7,66.9-32.1l-17.4,49.5
	L205.3,185.7z"/>
<polygon class="st0" points="340.4,204.7 282.6,106.5 272.4,197 "/>
<polygon class="st0" points="177.2,153.6 226.3,124.7 181.1,119.6 "/>
<polygon class="st0" points="264.2,196.4 170.8,164.3 257.4,114.8 "/>
<polygon class="st0" points="346.8,197.8 297.3,105.3 362.8,70.2 375.2,93.3 333.1,115.9 370.2,185.3 "/>
<circle class="st0" cx="139.1" cy="34.3" r="14.3"/>
<path class="st0" d="M250.6,47.3c17.8,9.1,24.9,31,15.7,48.8c-9.1,17.8-31,24.9-48.8,15.7L250.6,47.3z"/>
<polygon class="st0" points="214,185.2 272.4,211.6 220.8,221.4 "/>
</svg>
