<?xml version="1.0" encoding="utf-8"?>
<!-- Generator: Adobe Illustrator 26.1.0, SVG Export Plug-In . SVG Version: 6.00 Build 0)  -->
<svg version="1.1" xmlns="http://www.w3.org/2000/svg" xmlns:xlink="http://www.w3.org/1999/xlink" x="0pt" y="0pt"
	 width="1060.2pt" height="782.4pt" viewBox="0 0 1060.2 782.4" style="enable-background:new 0 0 1060.2 782.4;"
	 xml:space="preserve">
<style type="text/css">
	.st0{fill:none;stroke:#1D1D1B;stroke-miterlimit:10;}
	.st1{fill:#1D1D1B;}
</style>
<g id="FRESSAT:_LIMITS">
	<rect class="st0" width="1060.2" height="782.4"/>
</g>
<g id="REBAIX:_HOLDERS">
	<polygon class="st1" points="106.5,35.4 99.4,35.4 99.4,85 106.5,85 106.5,42.5 149,42.5 149,35.4 	"/>
	<polygon class="st1" points="99.4,643.4 99.4,650.5 149,650.5 149,643.4 106.5,643.4 106.5,600.9 99.4,600.9 	"/>
	<polygon class="st1" points="954.1,650.5 961.2,650.5 961.2,600.9 954.1,600.9 954.1,643.4 911.6,643.4 911.6,650.5 	"/>
	<polygon class="st1" points="961.2,42.5 961.2,35.4 911.6,35.4 911.6,42.5 954.1,42.5 954.1,85 961.2,85 	"/>
</g>
<g id="FRESSAT:_FORATS">
	<circle class="st0" cx="183.2" cy="711.5" r="8.5"/>
	<circle class="st0" cx="286.6" cy="711.5" r="17"/>
	<circle class="st0" cx="580.2" cy="711.5" r="17"/>
	<circle class="st0" cx="864.5" cy="711.5" r="17"/>
	<circle class="st0" cx="761.3" cy="711.5" r="9.9"/>
	<circle class="st0" cx="476.6" cy="711.5" r="9.9"/>
</g>
<g id="GRABAT:_ICON">
	<path class="st1" d="M158,712.5h-26.1c-0.6,0-1-0.4-1-1s0.4-1,1-1H158c0.6,0,1,0.4,1,1S158.5,712.5,158,712.5z"/>
	<path class="st1" d="M233.7,721h-7.6c-0.6,0-1-0.4-1-1s0.4-1,1-1h7.6c4.1,0,7.5-3.4,7.5-7.5s-3.4-7.5-7.5-7.5h-15.1
		c-4.1,0-7.5,3.4-7.5,7.5s3.4,7.5,7.5,7.5c0.6,0,1,0.4,1,1s-0.4,1-1,1c-5.2,0-9.5-4.3-9.5-9.5c0-5.2,4.3-9.5,9.5-9.5h15.1
		c5.2,0,9.5,4.3,9.5,9.5C243.2,716.8,238.9,721,233.7,721z"/>
	<path class="st1" d="M520.6,721.1c-0.3,0-0.5-0.1-0.7-0.3c-0.4-0.4-0.4-1,0-1.4l7.8-7.8l-8-8c-0.4-0.4-0.4-1,0-1.4s1-0.4,1.4,0
		l8.7,8.7c0.4,0.4,0.4,1,0,1.4l-8.5,8.5C521.1,721,520.9,721.1,520.6,721.1z"/>
	<path class="st1" d="M529.3,721.1c-0.3,0-0.5-0.1-0.7-0.3c-0.4-0.4-0.4-1,0-1.4l7.8-7.8l-8-8c-0.4-0.4-0.4-1,0-1.4s1-0.4,1.4,0
		l8.7,8.7c0.4,0.4,0.4,1,0,1.4l-8.5,8.5C529.8,721,529.5,721.1,529.3,721.1z"/>
	<path class="st1" d="M137.1,718.4c-0.3,0-0.5-0.1-0.7-0.3l-5.9-5.9c-0.4-0.4-0.4-1,0-1.4l6-6c0.4-0.4,1-0.4,1.4,0s0.4,1,0,1.4
		l-5.3,5.3l5.2,5.2c0.4,0.4,0.4,1,0,1.4C137.6,718.3,137.4,718.4,137.1,718.4z"/>
	<path class="st1" d="M232,726.9c-0.3,0-0.5-0.1-0.7-0.3l-5.9-5.9c-0.2-0.2-0.3-0.4-0.3-0.7s0.1-0.5,0.3-0.7l6-6
		c0.4-0.4,1-0.4,1.4,0s0.4,1,0,1.4l-5.3,5.3l5.2,5.2c0.4,0.4,0.4,1,0,1.4C232.5,726.9,232.3,726.9,232,726.9z"/>
	<g>
		<path d="M805.7,707.8C805.7,707.8,805.7,707.8,805.7,707.8l17.2-0.1c0.6,0,1.1-0.4,1.4-0.9c0.2-0.6,0.1-1.2-0.3-1.6l-8.5-8.5
			c-0.6-0.6-1.6-0.6-2.1,0l-8.7,8.7c-0.4,0.4-0.6,1.1-0.3,1.6C804.6,707.5,805.1,707.8,805.7,707.8z"/>
		<path d="M822.9,715.2l-17.2,0.1c-0.6,0-1.1,0.4-1.4,0.9c-0.2,0.6-0.1,1.2,0.3,1.6l8.5,8.5c0.3,0.3,0.7,0.4,1.1,0.4
			s0.8-0.2,1.1-0.4l8.7-8.7c0.4-0.4,0.6-1.1,0.3-1.6C824.1,715.5,823.5,715.1,822.9,715.2z"/>
	</g>
	<path class="st1" d="M635.5,710.5h-4.2l2.1-2.1c0.4-0.4,0.4-1,0-1.4s-1-0.4-1.4,0l-3.6,3.6h-5.4l2.6-4.5l4.9-1.3
		c0.5-0.1,0.8-0.7,0.7-1.2s-0.7-0.9-1.2-0.7l-2.9,0.8l2.2-3.8c0.3-0.5,0.1-1.1-0.4-1.4c-0.5-0.3-1.1-0.1-1.4,0.4l-2.2,3.8l-0.8-2.9
		c-0.1-0.5-0.7-0.9-1.2-0.7c-0.5,0.1-0.8,0.7-0.7,1.2l1.3,4.9l-2.6,4.5l-2.6-4.7l1.4-4.8c0.2-0.5-0.2-1.1-0.7-1.2
		c-0.5-0.2-1.1,0.2-1.2,0.7l-0.8,2.9l-2-3.7c-0.3-0.5-0.9-0.7-1.4-0.4c-0.5,0.3-0.7,0.9-0.4,1.4l2,3.7l-2.9-0.8
		c-0.5-0.2-1.1,0.2-1.2,0.7c-0.2,0.5,0.2,1.1,0.7,1.2l4.8,1.4l2.6,4.7h-5.3l-3.6-3.6c-0.4-0.4-1-0.4-1.4,0s-0.4,1,0,1.4l2.1,2.1
		h-4.4c-0.6,0-1,0.4-1,1s0.4,1,1,1h4.4l-2.1,2.1c-0.4,0.4-0.4,1,0,1.4c0.2,0.2,0.5,0.3,0.7,0.3s0.5-0.1,0.7-0.3l3.6-3.6h5.2
		l-2.7,4.7l-4.9,1.3c-0.5,0.1-0.8,0.7-0.7,1.2c0.1,0.5,0.7,0.9,1.2,0.7l2.9-0.8l-2.1,3.7c-0.3,0.5-0.1,1.1,0.4,1.4
		c0.2,0.1,0.3,0.1,0.5,0.1c0.3,0,0.7-0.2,0.9-0.5l2.1-3.7l0.8,2.9c0.1,0.4,0.5,0.7,1,0.7c0.1,0,0.2,0,0.3,0c0.5-0.1,0.8-0.7,0.7-1.2
		l-1.3-4.9l2.6-4.6l2.5,4.5l-1.4,4.8c-0.2,0.5,0.2,1.1,0.7,1.2c0.1,0,0.2,0,0.3,0c0.4,0,0.8-0.3,1-0.7l0.8-2.9l2.1,3.9
		c0.2,0.3,0.5,0.5,0.9,0.5c0.2,0,0.3,0,0.5-0.1c0.5-0.3,0.7-0.9,0.4-1.4l-2.1-3.9l2.9,0.8c0.5,0.2,1.1-0.2,1.2-0.7
		c0.2-0.5-0.2-1.1-0.7-1.2l-4.8-1.4l-2.5-4.6h5.4l3.6,3.6c0.2,0.2,0.5,0.3,0.7,0.3s0.5-0.1,0.7-0.3c0.4-0.4,0.4-1,0-1.4l-2.1-2.1
		h4.3c0.6,0,1-0.4,1-1S636.1,710.5,635.5,710.5z"/>
	<polygon class="st1" points="914.1,696.8 914.1,704.2 906.8,704.2 906.8,711.5 899.5,711.5 899.5,718.8 892.1,718.8 892.1,726.2 
		899.5,726.2 906.8,726.2 914.1,726.2 921.5,726.2 921.5,696.8 	"/>
	<path class="st1" d="M340.1,701.3l-3.4-3.4h-7.9l-3.5,3.4h-9.2v21h33.4v-21H340.1z M332.8,717c-2.9,0-5.3-2.4-5.3-5.3
		c0-2.9,2.4-5.3,5.3-5.3s5.3,2.4,5.3,5.3C338.1,714.7,335.7,717,332.8,717z"/>
</g>
<g id="GRABAT:_EXTRA">
	<polyline class="st0" points="103,643.4 103,647 106.5,647 	"/>
	<polyline class="st0" points="106.5,38.9 103,38.9 103,42.5 	"/>
	<polyline class="st0" points="957.6,42.5 957.6,38.9 954.1,38.9 	"/>
	<polyline class="st0" points="954.1,647 957.6,647 957.6,643.4 	"/>
	<circle class="st0" cx="183.2" cy="711.5" r="2.1"/>
	<circle class="st0" cx="761.3" cy="711.5" r="2.5"/>
	<circle class="st0" cx="476.6" cy="711.5" r="2.5"/>
	<circle class="st0" cx="286.6" cy="711.5" r="2.1"/>
	<circle class="st0" cx="580.2" cy="711.5" r="2.5"/>
	<circle class="st0" cx="864.5" cy="711.5" r="2.5"/>
	<rect class="st0" width="1060.2" height="782.4"/>
</g>
</svg>
